<svg id="Layer_2" data-name="Layer 2" xmlns="http://www.w3.org/2000/svg" viewBox="0 0 148 30"><defs><style>.cls-1{fill:#fff;}</style></defs><title>logo</title><path class="cls-1" d="M25.2,14.957L16.852,0.043A0.083,0.083,0,0,0,16.736.012a0.086,0.086,0,0,0-.031.032L8.358,14.957,0.011,29.869a0.089,0.089,0,0,0,.032.119A0.083,0.083,0,0,0,.084,30H33.492a0.075,0.075,0,0,0,.074-0.076,0.078,0.078,0,0,0-.01-0.04Zm1.49,11H6.882a0.051,0.051,0,0,1-.051-0.05,0.053,0.053,0,0,1,.007-0.028l4.949-8.838L16.736,8.2A0.049,0.049,0,0,1,16.8,8.18a0.051,0.051,0,0,1,.019.019l4.949,8.838,4.954,8.85a0.046,0.046,0,0,1-.025.059l-0.012,0v0Z"/><path class="cls-1" d="M69.642,28.972H64.491L51.851,7.846H51.71L51.8,9.026q0.246,3.372.246,6.165V28.972H48.229V2.461h5.1L65.933,23.478h0.106Q66,23.061,65.9,20.441t-0.106-4.09V2.461h3.85V28.972Z"/><path class="cls-1" d="M92.374,28.972L89.807,21.61H79.979l-2.514,7.362h-4.43L82.651,2.353h4.571L96.84,28.972H92.374ZM88.7,17.875l-2.407-7.217q-0.266-.726-0.73-2.285T84.92,6.088a41.836,41.836,0,0,1-1.389,4.877l-2.32,6.909H88.7Z"/><path class="cls-1" d="M111.343,28.972L103.889,6.832h-0.14q0.3,4.932.3,9.248V28.972h-3.815V2.461h5.925l7.138,21.09H113.4l7.349-21.09h5.942V28.972h-4.044V15.863q0-1.977.1-5.151t0.166-3.844h-0.14l-7.718,22.1h-3.71Z"/><path class="cls-1" d="M148,28.972H133.46V2.461H148V6.124H137.663v7.217h9.686v3.627h-9.686v8.323H148v3.681Z"/></svg>